<?xml version="1.0" standalone="no"?>
<!DOCTYPE svg PUBLIC "-//W3C//DTD SVG 20010904//EN"
 "http://www.w3.org/TR/2001/REC-SVG-20010904/DTD/svg10.dtd">
<svg version="1.0" xmlns="http://www.w3.org/2000/svg"
 width="400.000000pt" height="400.000000pt" viewBox="0 0 400.000000 400.000000"
 preserveAspectRatio="xMidYMid meet">
<metadata>
Created by potrace 1.14, written by Peter Selinger 2001-2017
</metadata>
<g transform="translate(0.000000,400.000000) scale(0.100000,-0.100000)"
fill="#000000" stroke="none">
<path d="M1863 2582 c-142 -51 -231 -172 -221 -304 l3 -43 24 49 c33 66 91
122 160 155 77 36 200 37 278 2 61 -27 144 -111 164 -164 20 -57 32 -45 27 28
-10 118 -76 213 -185 266 -62 30 -182 36 -250 11z"/>
<path d="M494 2311 c-2 -2 -4 -164 -4 -358 l0 -354 58 3 57 3 5 163 5 164 112
-124 c61 -67 129 -142 151 -165 l40 -43 77 0 c43 0 75 4 73 9 -1 5 -81 88
-175 184 -95 97 -173 178 -173 182 0 4 74 79 165 167 91 89 163 164 159 167
-3 3 -37 7 -75 7 l-69 2 -143 -153 -142 -152 -5 151 -5 150 -53 1 c-29 0 -55
-1 -58 -4z"/>
<path d="M1732 2312 l-22 -3 2 -352 3 -352 57 -3 57 -3 3 123 3 123 145 5
c127 5 150 8 185 28 68 39 89 81 93 184 3 75 1 94 -18 133 -25 52 -72 88 -138
105 -39 10 -318 19 -370 12z m342 -116 c48 -20 69 -64 64 -134 -8 -97 -65
-127 -228 -120 l-75 3 -3 124 c-1 69 0 131 3 139 5 12 23 14 104 9 55 -3 115
-13 135 -21z"/>
<path d="M2479 2164 c-76 -23 -129 -93 -129 -171 0 -21 5 -23 55 -23 57 0 58
1 69 51 13 60 126 88 209 51 39 -17 47 -26 57 -61 6 -23 9 -45 6 -50 -3 -5
-47 -12 -98 -15 -139 -11 -223 -33 -264 -68 -89 -78 -56 -219 62 -264 69 -26
206 -16 267 19 26 16 47 32 47 37 0 22 20 8 26 -17 9 -39 23 -53 50 -53 l24 0
0 206 c0 126 -4 222 -11 245 -15 49 -62 93 -122 113 -59 20 -185 20 -248 0z
m267 -346 c-13 -83 -71 -128 -164 -128 -86 0 -144 46 -127 101 12 38 108 64
249 68 l49 1 -7 -42z"/>
<path d="M1070 1968 c0 -112 5 -220 11 -241 14 -51 63 -104 107 -117 49 -13
171 -13 213 1 19 7 49 23 67 36 18 14 34 23 36 22 1 -2 6 -17 12 -34 8 -24 15
-30 39 -30 l30 0 3 283 2 282 -60 0 -60 0 0 -185 c0 -259 -13 -285 -146 -285
-84 0 -117 19 -134 78 -5 20 -10 117 -10 215 l0 177 -55 0 -55 0 0 -202z"/>
<path d="M2964 2155 c-11 -29 3 -398 16 -435 16 -45 56 -89 97 -106 73 -31
225 -13 276 34 19 17 19 15 15 -50 -3 -54 -9 -73 -28 -93 -30 -32 -91 -49
-154 -41 -58 6 -90 25 -108 63 -12 25 -19 28 -63 28 -48 0 -50 -1 -53 -30 -4
-44 34 -95 93 -125 44 -22 63 -25 160 -25 103 0 113 2 165 30 40 22 61 42 80
75 l25 45 0 320 0 320 -57 3 -58 3 0 -180 c0 -257 -18 -291 -150 -291 -74 0
-114 19 -129 61 -7 19 -11 108 -11 220 l0 189 -55 0 c-41 0 -57 -4 -61 -15z"/>
</g>
</svg>
